<svg width="14" height="15" viewBox="0 0 14 15" fill="none" xmlns="http://www.w3.org/2000/svg">
<path d="M9.98324 2.65002L8.3739 1.04069C8.12391 0.790625 7.78483 0.6501 7.43124 0.650024H1.98324C1.62961 0.650024 1.29048 0.7905 1.04043 1.04055C0.790378 1.2906 0.649902 1.62974 0.649902 1.98336V12.65C0.649902 13.0036 0.790378 13.3428 1.04043 13.5928C1.29048 13.8429 1.62961 13.9834 1.98324 13.9834H9.98324C10.3369 13.9834 10.676 13.8429 10.926 13.5928C11.1761 13.3428 11.3166 13.0036 11.3166 12.65M3.31657 11.3167H3.98324M12.2352 7.73396C12.5008 7.46839 12.65 7.1082 12.65 6.73263C12.65 6.35705 12.5008 5.99686 12.2352 5.73129C11.9696 5.46572 11.6095 5.31653 11.2339 5.31653C10.8583 5.31653 10.4981 5.46572 10.2326 5.73129L7.55922 8.40596C7.40072 8.56437 7.2847 8.76018 7.22189 8.97529L6.66389 10.8886C6.64715 10.946 6.64615 11.0068 6.66098 11.0647C6.67581 11.1226 6.70593 11.1754 6.74818 11.2177C6.79044 11.2599 6.84327 11.29 6.90116 11.3049C6.95905 11.3197 7.01985 11.3187 7.07722 11.302L8.99055 10.744C9.20566 10.6811 9.40147 10.5651 9.55989 10.4066L12.2352 7.73396Z" stroke="#002432" stroke-width="1.3" stroke-linecap="round" stroke-linejoin="round"/>
</svg>
