<svg width="18" height="17" viewBox="0 0 18 17" fill="none" xmlns="http://www.w3.org/2000/svg">
<path d="M0.75 15.75H16.9902M1.99023 0.75V15.75M10.75 0.75V15.75M15.75 4.5V15.75M4.49023 3.875H5.12012M4.49023 6.375H5.12012M4.49023 8.875H5.12012M7.62012 3.875H8.25M7.62012 6.375H8.25M7.62012 8.875H8.25M4.49023 15.75V12.938C4.49023 12.42 4.91018 12 5.43018 12H7.31006C7.83006 12 8.25 12.42 8.25 12.938V15.75M1.37012 0.75H11.3701M10.75 4.5H16.3701M13.25 7.625V7.63098M13.25 10.125V10.131M13.25 12.625V12.631" stroke="#525252" stroke-width="1.5" stroke-linecap="round" stroke-linejoin="round"/>
</svg>
