<svg width="16" height="16" viewBox="0 0 16 16" fill="none" xmlns="http://www.w3.org/2000/svg">
<path d="M3.33366 14.6666H12.667M9.33366 8.66665V5.66665C9.33366 4.66665 10.0003 4.66665 10.0003 3.33331C10.0003 2.80288 9.78961 2.29417 9.41454 1.9191C9.03947 1.54403 8.53076 1.33331 8.00033 1.33331C6.89366 1.33331 6.00033 1.99998 6.00033 3.33331C6.00033 4.66665 6.66699 4.66665 6.66699 5.66665V8.66665M12.847 9.15332C12.6919 8.99864 12.5079 8.87605 12.3054 8.79254C12.103 8.70904 11.886 8.66626 11.667 8.66665H4.33366C3.89163 8.66665 3.46771 8.84224 3.15515 9.1548C2.84259 9.46737 2.66699 9.89129 2.66699 10.3333V11.3333C2.66699 11.5101 2.73723 11.6797 2.86225 11.8047C2.98728 11.9297 3.15685 12 3.33366 12H12.667C12.8438 12 13.0134 11.9297 13.1384 11.8047C13.2634 11.6797 13.3337 11.5101 13.3337 11.3333V10.3333C13.3337 9.89332 13.1603 9.46665 12.847 9.15332Z" stroke="#737373" stroke-width="1.5" stroke-linecap="round" stroke-linejoin="round"/>
</svg>
