<svg width="16" height="16" viewBox="0 0 16 16" fill="none" xmlns="http://www.w3.org/2000/svg">
<g clip-path="url(#clip0_40000150_11233)">
<path d="M14.1399 10.5934C13.7158 11.5964 13.0525 12.4802 12.2079 13.1676C11.3633 13.855 10.3631 14.325 9.2949 14.5366C8.22668 14.7481 7.12289 14.6948 6.08004 14.3812C5.03719 14.0677 4.08703 13.5034 3.31262 12.7378C2.53822 11.9722 1.96315 11.0285 1.6377 9.98933C1.31225 8.95013 1.24632 7.84702 1.44568 6.77645C1.64503 5.70589 2.10361 4.70045 2.78131 3.84805C3.45901 2.99565 4.3352 2.32224 5.33328 1.8867M14.6667 7.99998C14.6667 7.1245 14.4942 6.25759 14.1592 5.44876C13.8242 4.63992 13.3331 3.90499 12.714 3.28593C12.095 2.66688 11.3601 2.17581 10.5512 1.84078C9.74239 1.50575 8.87548 1.33331 8 1.33331V7.99998H14.6667Z" stroke="#002432" stroke-width="1.5" stroke-linecap="round" stroke-linejoin="round"/>
</g>
<defs>
<clipPath id="clip0_40000150_11233">
<rect width="16" height="16" fill="white"/>
</clipPath>
</defs>
</svg>
