<svg width="14" height="14" viewBox="0 0 14 14" fill="none" xmlns="http://www.w3.org/2000/svg">
<path d="M9.89102 2.1415L11.016 1.01651C11.5042 0.528352 12.2956 0.528352 12.7838 1.01651C13.2719 1.50466 13.2719 2.29612 12.7838 2.78427L5.70469 9.86337C5.35224 10.2158 4.91753 10.4749 4.43983 10.6172L2.6499 11.1504L3.18309 9.36047C3.32539 8.88278 3.58447 8.44806 3.93692 8.09561L9.89102 2.1415ZM9.89102 2.1415L11.6499 3.90039M10.6499 8.48372V11.6504C10.6499 12.4788 9.97833 13.1504 9.1499 13.1504H2.1499C1.32148 13.1504 0.649902 12.4788 0.649902 11.6504V4.65039C0.649902 3.82196 1.32148 3.15039 2.1499 3.15039H5.31657" stroke="#4936B4" stroke-width="1.3" stroke-linecap="round" stroke-linejoin="round"/>
</svg>
