<svg width="24" height="24" viewBox="0 0 24 24" fill="none" xmlns="http://www.w3.org/2000/svg">
<path d="M3.6624 10.7061H7.00827C7.23867 10.7061 7.42373 10.8907 7.42373 11.1213V11.9645C7.42373 12.1947 7.23893 12.3797 7.00827 12.3797H3.6624C3.43173 12.3797 3.2472 12.1949 3.2472 11.9645V11.1213C3.2472 10.8909 3.43173 10.7061 3.6624 10.7061ZM15.6096 5.22427C18.4248 5.22427 20.7083 7.5064 20.7083 10.3229C20.7083 13.1395 18.4248 15.4213 15.6096 15.4213C12.7928 15.4213 10.5109 13.1379 10.5109 10.3229C10.5109 7.50747 12.7931 5.22427 15.6096 5.22427ZM15.6096 3.32587C12.2928 3.32587 9.43307 5.65493 8.75947 8.9008H3.00987C2.11387 8.9008 1.39307 9.6216 1.39307 10.5176V17.4837C1.39307 18.3797 2.11387 19.1005 3.00987 19.1005H4.30427L4.52933 20.2275C4.57813 20.4704 4.72933 20.6747 4.97653 20.6747H6.15413C6.4032 20.6747 6.55413 20.4704 6.60293 20.2275C6.67787 19.8509 6.7296 19.5925 6.828 19.1005H17.1741L17.3987 20.2275C17.4475 20.4704 17.5976 20.6747 17.8461 20.6747H19.024C19.2725 20.6747 19.424 20.4704 19.4709 20.2275C19.5459 19.8509 19.5989 19.5925 19.696 19.1005H20.9904C21.8859 19.1005 22.6072 18.38 22.6072 17.4837V10.3229C22.6069 6.4576 19.4736 3.32587 15.6096 3.32587Z" fill="#002432"/>
<path fill-rule="evenodd" clip-rule="evenodd" d="M15.609 6.81195C14.1895 6.81195 12.9087 7.66768 12.3658 8.98022C11.8229 10.2912 12.1226 11.8024 13.1271 12.805C14.1311 13.8093 15.6407 14.1093 16.9517 13.5661C18.2645 13.0232 19.1199 11.7423 19.1199 10.3231H17.045C17.045 11.1162 16.4021 11.7592 15.609 11.7592C14.8159 11.7592 14.1727 11.1162 14.1727 10.3231C14.1727 9.52955 14.8159 8.88688 15.609 8.88688V6.81195Z" fill="#002432"/>
<path fill-rule="evenodd" clip-rule="evenodd" d="M17.3646 7.2829L16.3257 9.08023C16.5436 9.20663 16.7257 9.3885 16.8521 9.60663L18.6491 8.5677C18.3411 8.03436 17.898 7.59116 17.3646 7.2829Z" fill="#002432"/>
</svg>
