<svg width="16" height="16" viewBox="0 0 16 16" fill="none" xmlns="http://www.w3.org/2000/svg">
<g clip-path="url(#clip0_40000150_3757)">
<path d="M11 5.33317C11.1841 5.33317 11.3333 5.18393 11.3333 4.99984C11.3333 4.81574 11.1841 4.6665 11 4.6665C10.8159 4.6665 10.6666 4.81574 10.6666 4.99984C10.6666 5.18393 10.8159 5.33317 11 5.33317Z" fill="#0A0A0A"/>
<path d="M1.33331 11.9998V13.9998C1.33331 14.3998 1.59998 14.6664 1.99998 14.6664H4.66665V12.6664H6.66665V10.6664H7.99998L8.93331 9.73311C9.85987 10.0559 10.8685 10.0546 11.7943 9.72962C12.7201 9.40459 13.5081 8.775 14.0296 7.94386C14.551 7.11272 14.7749 6.12923 14.6647 5.15427C14.5545 4.17932 14.1167 3.27062 13.4229 2.57683C12.7291 1.88304 11.8204 1.44524 10.8455 1.33504C9.87053 1.22484 8.88704 1.44878 8.0559 1.97021C7.22476 2.49164 6.59517 3.2797 6.27015 4.20546C5.94512 5.13123 5.94388 6.13989 6.26665 7.06645L1.33331 11.9998Z" stroke="#0A0A0A" stroke-width="1.3" stroke-linecap="round" stroke-linejoin="round"/>
<path d="M11 5.33317C11.1841 5.33317 11.3333 5.18393 11.3333 4.99984C11.3333 4.81574 11.1841 4.6665 11 4.6665C10.8159 4.6665 10.6666 4.81574 10.6666 4.99984C10.6666 5.18393 10.8159 5.33317 11 5.33317Z" stroke="#0A0A0A" stroke-width="1.3" stroke-linecap="round" stroke-linejoin="round"/>
</g>
<defs>
<clipPath id="clip0_40000150_3757">
<rect width="16" height="16" fill="white"/>
</clipPath>
</defs>
</svg>
