<svg width="16" height="16" viewBox="0 0 16 16" fill="none" xmlns="http://www.w3.org/2000/svg">
<path d="M13.3334 6.66634C13.3334 10.6663 8.00002 14.6663 8.00002 14.6663C8.00002 14.6663 2.66669 10.6663 2.66669 6.66634C2.66669 5.25185 3.22859 3.8953 4.22878 2.8951C5.22898 1.89491 6.58553 1.33301 8.00002 1.33301C9.41451 1.33301 10.7711 1.89491 11.7713 2.8951C12.7715 3.8953 13.3334 5.25185 13.3334 6.66634Z" stroke="#002432" stroke-width="1.5" stroke-linecap="round" stroke-linejoin="round"/>
<path d="M8.00002 8.66634C9.10459 8.66634 10 7.77091 10 6.66634C10 5.56177 9.10459 4.66634 8.00002 4.66634C6.89545 4.66634 6.00002 5.56177 6.00002 6.66634C6.00002 7.77091 6.89545 8.66634 8.00002 8.66634Z" stroke="#002432" stroke-width="1.5" stroke-linecap="round" stroke-linejoin="round"/>
</svg>
