<svg width="16" height="16" viewBox="0 0 16 16" fill="none" xmlns="http://www.w3.org/2000/svg">
<g clip-path="url(#clip0_40000150_11255)">
<path d="M4.66634 13.7746V12.6666C4.66634 12.313 4.80682 11.9739 5.05687 11.7238C5.30691 11.4738 5.64605 11.3333 5.99967 11.3333H9.99967C10.3533 11.3333 10.6924 11.4738 10.9425 11.7238C11.1925 11.9739 11.333 12.313 11.333 12.6666V13.7746M14.6663 7.99998C14.6663 11.6819 11.6816 14.6666 7.99967 14.6666C4.31778 14.6666 1.33301 11.6819 1.33301 7.99998C1.33301 4.31808 4.31778 1.33331 7.99967 1.33331C11.6816 1.33331 14.6663 4.31808 14.6663 7.99998ZM9.99967 6.66665C9.99967 7.77122 9.10424 8.66665 7.99967 8.66665C6.89511 8.66665 5.99967 7.77122 5.99967 6.66665C5.99967 5.56208 6.89511 4.66665 7.99967 4.66665C9.10424 4.66665 9.99967 5.56208 9.99967 6.66665Z" stroke="#737373" stroke-width="1.5" stroke-linecap="round" stroke-linejoin="round"/>
</g>
<defs>
<clipPath id="clip0_40000150_11255">
<rect width="16" height="16" fill="white"/>
</clipPath>
</defs>
</svg>
