<svg width="18" height="18" viewBox="0 0 18 18" fill="none" xmlns="http://www.w3.org/2000/svg">
<path d="M10.75 7V3.25M10.75 7H14.4902M10.75 7L15.75 2M13.25 17C6.34 17 0.75 11.404 0.75 4.5V2.625C0.75 1.589 1.58012 0.75 2.62012 0.75H3.76001C4.19001 0.75 4.57017 1.04302 4.67017 1.46002L5.59009 5.146C5.69009 5.512 5.55 5.89699 5.25 6.12299L4.17017 6.93201C3.86017 7.16701 3.7201 7.572 3.8501 7.94C4.8601 10.696 7.05006 12.883 9.81006 13.893C10.1701 14.027 10.5801 13.889 10.8101 13.576L11.6201 12.498C11.8501 12.196 12.2301 12.059 12.6001 12.151L16.28 13.072C16.7 13.177 16.9902 13.552 16.9902 13.982V15.125C16.9902 16.161 16.1601 17 15.1201 17H13.25Z" stroke="#525252" stroke-width="1.5" stroke-linecap="round" stroke-linejoin="round"/>
</svg>
