<svg width="24" height="24" viewBox="0 0 24 24" fill="none" xmlns="http://www.w3.org/2000/svg">
<g clip-path="url(#clip0_312_15241)">
<path d="M17.625 21.0938H6.375C5.59833 21.0938 4.96875 21.8171 4.96875 22.5938V23.2969C4.96875 23.6852 5.28356 24 5.67188 24H18.3281C18.7164 24 19.0312 23.6852 19.0312 23.2969V22.5938C19.0312 21.8171 18.4017 21.0938 17.625 21.0938Z" fill="#002432"/>
<path d="M8.69531 4.21875C8.30738 4.21875 7.99219 4.53394 7.99219 4.92188C7.99219 5.30981 8.30738 5.625 8.69531 5.625C9.08325 5.625 9.39844 5.30981 9.39844 4.92188C9.39844 4.53394 9.08325 4.21875 8.69531 4.21875Z" fill="#002432"/>
<path d="M15.2702 11.1975C14.5583 11.0397 13.9873 10.5205 13.746 9.84375H8.87892L8.56641 12.6562H15.4323L15.2702 11.1975Z" fill="#002432"/>
<path d="M14.6512 5.625H10.6743C10.4387 6.2858 9.88762 6.79298 9.19898 6.96342L9.03516 8.4375H13.7459C13.9349 7.90739 14.3258 7.47656 14.8304 7.23802L14.6512 5.625Z" fill="#002432"/>
<path d="M23.2367 9.84375H17.707C17.5238 10.3577 17.1498 10.7763 16.667 11.019L16.849 12.6562H23.8618L23.2367 9.84375Z" fill="#002432"/>
<path d="M22.2976 5.625H16.0664L16.2302 7.09908C16.9188 7.26952 17.4699 7.7767 17.7055 8.4375H22.9228L22.2976 5.625Z" fill="#002432"/>
<path d="M14.0276 0H9.97385L9.63574 3.04345C10.1186 3.28622 10.4925 3.70481 10.6758 4.21875H14.4964L14.0276 0Z" fill="#002432"/>
<path d="M6.71598 5.625H1.70227L1.07715 8.4375H7.62123L7.80052 6.82448C7.29591 6.58594 6.90498 6.15511 6.71598 5.625Z" fill="#002432"/>
<path d="M0 14.0625V14.7656C0 15.9288 0.946219 16.875 2.10938 16.875H8.91534L7.97789 19.6875H16.0221L15.0847 16.875H21.8906C23.0538 16.875 24 15.9288 24 14.7656V14.0625H0Z" fill="#002432"/>
<path d="M15.7266 8.4375C15.3386 8.4375 15.0234 8.75269 15.0234 9.14062C15.0234 9.52856 15.3386 9.84375 15.7266 9.84375C16.1145 9.84375 16.4297 9.52856 16.4297 9.14062C16.4297 8.75269 16.1145 8.4375 15.7266 8.4375Z" fill="#002432"/>
<path d="M0.76375 9.84375L0.138672 12.6562H7.15155L7.46416 9.84375H0.76375Z" fill="#002432"/>
<path d="M21.4157 1.65206C21.1994 0.679078 20.3528 0 19.3564 0H15.4424L15.9111 4.21875H21.9861L21.4157 1.65206Z" fill="#002432"/>
<path d="M4.64478 0C3.6485 0 2.80184 0.679078 2.58556 1.65206L2.01514 4.21875H6.71632C6.95768 3.54197 7.52871 3.02278 8.24061 2.86505L8.55884 0H4.64478Z" fill="#002432"/>
</g>
<defs>
<clipPath id="clip0_312_15241">
<rect width="24" height="24" fill="white"/>
</clipPath>
</defs>
</svg>
