<svg width="16" height="16" viewBox="0 0 16 16" fill="none" xmlns="http://www.w3.org/2000/svg">
<path d="M13.3333 4.66665H11.3333C10.9797 4.66665 10.6406 4.52617 10.3905 4.27612C10.1405 4.02607 10 3.68694 10 3.33331V1.33331M2 5.06671V13.6C2 13.8829 2.11238 14.1543 2.31242 14.3543C2.51246 14.5543 2.78377 14.6667 3.06667 14.6667H9.6M6 12C5.64638 12 5.30724 11.8595 5.05719 11.6095C4.80714 11.3594 4.66667 11.0203 4.66667 10.6666V2.66665C4.66667 2.31302 4.80714 1.97389 5.05719 1.72384C5.30724 1.47379 5.64638 1.33331 6 1.33331H10.6667L13.3333 3.99998V10.6666C13.3333 11.0203 13.1929 11.3594 12.9428 11.6095C12.6928 11.8595 12.3536 12 12 12H6Z" stroke="#737373" stroke-width="1.5" stroke-linecap="round" stroke-linejoin="round"/>
</svg>
