<svg width="16" height="16" viewBox="0 0 16 16" fill="none" xmlns="http://www.w3.org/2000/svg">
<path d="M10.667 2.66665H12.0003C12.3539 2.66665 12.6931 2.80712 12.9431 3.05717C13.1932 3.30722 13.3337 3.64636 13.3337 3.99998V13.3333C13.3337 13.6869 13.1932 14.0261 12.9431 14.2761C12.6931 14.5262 12.3539 14.6666 12.0003 14.6666H4.00033C3.6467 14.6666 3.30756 14.5262 3.05752 14.2761C2.80747 14.0261 2.66699 13.6869 2.66699 13.3333V3.99998C2.66699 3.64636 2.80747 3.30722 3.05752 3.05717C3.30756 2.80712 3.6467 2.66665 4.00033 2.66665H5.33366M8.00033 7.33331H10.667M8.00033 10.6666H10.667M5.33366 7.33331H5.34033M5.33366 10.6666H5.34033M6.00033 1.33331H10.0003C10.3685 1.33331 10.667 1.63179 10.667 1.99998V3.33331C10.667 3.7015 10.3685 3.99998 10.0003 3.99998H6.00033C5.63214 3.99998 5.33366 3.7015 5.33366 3.33331V1.99998C5.33366 1.63179 5.63214 1.33331 6.00033 1.33331Z" stroke="#737373" stroke-width="1.5" stroke-linecap="round" stroke-linejoin="round"/>
</svg>
