<svg width="16" height="16" viewBox="0 0 16 16" fill="none" xmlns="http://www.w3.org/2000/svg">
<path d="M11.3333 12C11.3333 11.6464 11.1929 11.3072 10.9428 11.0572C10.6928 10.8071 10.3536 10.6666 10 10.6666H6C5.64638 10.6666 5.30724 10.8071 5.05719 11.0572C4.80714 11.3072 4.66667 11.6464 4.66667 12M5.33333 1.33331V2.66665M10.6667 1.33331V2.66665M3.33333 2.66665H12.6667C13.403 2.66665 14 3.2636 14 3.99998V13.3333C14 14.0697 13.403 14.6666 12.6667 14.6666H3.33333C2.59695 14.6666 2 14.0697 2 13.3333V3.99998C2 3.2636 2.59695 2.66665 3.33333 2.66665ZM9.33333 6.66665C9.33333 7.40303 8.73638 7.99998 8 7.99998C7.26362 7.99998 6.66667 7.40303 6.66667 6.66665C6.66667 5.93027 7.26362 5.33331 8 5.33331C8.73638 5.33331 9.33333 5.93027 9.33333 6.66665Z" stroke="#737373" stroke-width="1.5" stroke-linecap="round" stroke-linejoin="round"/>
</svg>
