<svg width="12" height="12" viewBox="0 0 12 12" fill="none" xmlns="http://www.w3.org/2000/svg">
<path d="M9 2.5L7.793 1.293C7.60551 1.10545 7.35119 1.00006 7.086 1H3C2.73478 1 2.48043 1.10536 2.29289 1.29289C2.10536 1.48043 2 1.73478 2 2V10C2 10.2652 2.10536 10.5196 2.29289 10.7071C2.48043 10.8946 2.73478 11 3 11H9C9.26522 11 9.51957 10.8946 9.70711 10.7071C9.89464 10.5196 10 10.2652 10 10M4 9H4.5M10.689 6.31295C10.8882 6.11377 11.0001 5.84363 11.0001 5.56195C11.0001 5.28027 10.8882 5.01013 10.689 4.81095C10.4898 4.61177 10.2197 4.49988 9.93799 4.49988C9.65631 4.49988 9.38617 4.61177 9.18699 4.81095L7.18199 6.81695C7.06311 6.93576 6.9761 7.08262 6.92899 7.24395L6.51049 8.67895C6.49794 8.72198 6.49719 8.76758 6.50831 8.811C6.51943 8.85441 6.54202 8.89404 6.57371 8.92573C6.6054 8.95742 6.64503 8.98001 6.68844 8.99113C6.73186 9.00225 6.77746 9.0015 6.82049 8.98895L8.25549 8.57045C8.41682 8.52334 8.56368 8.43633 8.68249 8.31745L10.689 6.31295Z" stroke="#3F6212" stroke-width="1.33" stroke-linecap="round" stroke-linejoin="round"/>
</svg>
