<svg width="20" height="20" viewBox="0 0 20 20" fill="none" xmlns="http://www.w3.org/2000/svg">
<path d="M6.75 10.5L9 12.75L12.75 7.5M18.75 9.75C18.75 11.0183 18.1204 12.1395 17.1567 12.8182C17.3581 13.9794 17.0104 15.2172 16.1137 16.1139C15.217 17.0106 13.9792 17.3583 12.818 17.1569C12.1393 18.1205 11.0182 18.75 9.75 18.75C8.48185 18.75 7.36072 18.1205 6.68204 17.157C5.52066 17.3586 4.28256 17.011 3.3857 16.1141C2.48886 15.2173 2.14125 13.9792 2.34286 12.8178C1.37941 12.1391 0.75 11.0181 0.75 9.75C0.75 8.48188 1.37946 7.36077 2.34298 6.68208C2.14147 5.52079 2.4891 4.28284 3.38587 3.38607C4.28265 2.48929 5.52063 2.14166 6.68194 2.34319C7.36061 1.37955 8.48179 0.75 9.75 0.75C11.0182 0.75 12.1393 1.3795 12.818 2.34307C13.9794 2.14145 15.2174 2.48906 16.1143 3.3859C17.0111 4.28274 17.3587 5.52081 17.1571 6.68218C18.1206 7.36087 18.75 8.48193 18.75 9.75Z" stroke="#A3A3A3" stroke-width="1.5" stroke-linecap="round" stroke-linejoin="round"/>
</svg>
